<svg xmlns:xlink="http://www.w3.org/1999/xlink" xmlns="http://www.w3.org/2000/svg" id="Group_7" data-name="Group 7" width="220" height="28.302" viewBox="0 0 220 28.302">
  <g id="Group_6" data-name="Group 6">
    <path id="Path_50" data-name="Path 50" d="M166.285,830.479l-8.113,21.758h3.864l1.784-4.854h9.1l1.784,4.854h3.861l-8.019-21.758Zm5.373,13.45h-6.577l3.289-9Z" transform="translate(-158.172 -830.479)" fill="#fff"/>
    <path id="Path_51" data-name="Path 51" d="M234.7,847.465a6.378,6.378,0,0,0-4.647-1.842c-4.677,0-8.072,3.616-8.072,8.6,0,5.1,3.247,8.656,7.9,8.656a6.512,6.512,0,0,0,4.735-1.808v2.947c0,1.316-.428,1.782-1.636,1.782h-7.253v3.424h7.224c3.395,0,5.265-1.766,5.265-4.972V846H234.7Zm0,6.756c0,3.147-1.832,5.262-4.56,5.262-2.65,0-4.5-2.164-4.5-5.262,0-3.063,1.875-5.2,4.56-5.2C233.155,849.018,234.7,851.636,234.7,854.221Z" transform="translate(-201.407 -840.921)" fill="#fff"/>
    <path id="Path_52" data-name="Path 52" d="M288.118,845.624c-4.568,0-8.013,3.734-8.013,8.686,0,5.125,3.279,8.568,8.16,8.568a7.46,7.46,0,0,0,7.489-5.314l.232-.836-3.729-.023a3.877,3.877,0,0,1-3.963,2.837,4.111,4.111,0,0,1-4.5-4h12.188v-1.493C295.985,848.93,292.9,845.624,288.118,845.624Zm0,3.366a3.922,3.922,0,0,1,4.141,3.389h-8.35A4.224,4.224,0,0,1,288.118,848.99Z" transform="translate(-241.058 -840.819)" fill="#fff"/>
    <path id="Path_53" data-name="Path 53" d="M345.827,845.623a5.948,5.948,0,0,0-4.18,1.538V846h-3.6V862.5h3.6v-9.709a3.588,3.588,0,0,1,3.624-3.712,3.209,3.209,0,0,1,3.273,3.361V862.5h3.6V852.291C352.145,848.365,349.547,845.623,345.827,845.623Z" transform="translate(-280.442 -840.816)" fill="#fff"/>
    <path id="Path_54" data-name="Path 54" d="M402.163,856.213a3.972,3.972,0,0,1-4.073,3.27c-2.857,0-4.852-2.151-4.852-5.232,0-3.032,2.016-5.232,4.794-5.232a3.972,3.972,0,0,1,4.073,3.27l.12.667,3.576-.825-.153-.633a7.7,7.7,0,0,0-7.674-5.874A8.629,8.629,0,0,0,398,862.878a7.715,7.715,0,0,0,7.7-5.874l.153-.634-3.575-.825Z" transform="translate(-315.456 -840.819)" fill="#fff"/>
    <path id="Path_55" data-name="Path 55" d="M449.231,858.738,445.145,846.8h-3.958l6.059,16.494h.128l-.747,1.957a1.781,1.781,0,0,1-1.943,1.373h-2.341v3.395H444.6c2.707,0,4.367-1.042,5.221-3.277l7.738-19.942h-4Z" transform="translate(-350.557 -841.719)" fill="#fff"/>
    <path id="Path_56" data-name="Path 56" d="M502.474,830.479h-3.658v21.758H511.3v-3.424h-8.83Z" transform="translate(-389.717 -830.479)" fill="#fff"/>
    <path id="Path_57" data-name="Path 57" d="M557.033,859.15a.383.383,0,0,1,0-.045V846H553.4v1.467a6.543,6.543,0,0,0-4.706-1.847c-4.649,0-7.9,3.56-7.9,8.656,0,4.982,3.395,8.6,8.072,8.6a6.328,6.328,0,0,0,4.873-2.062,2.773,2.773,0,0,0,2.612,1.682h2.136v-3.337h-1.347A.464.464,0,0,1,557.033,859.15Zm-3.544-4.841c0,3.575-2.333,5.2-4.5,5.2-2.668,0-4.531-2.139-4.531-5.2,0-3.115,1.851-5.291,4.5-5.291C551.668,849.018,553.489,851.145,553.489,854.309Z" transform="translate(-418.275 -840.819)" fill="#fff"/>
    <path id="Path_58" data-name="Path 58" d="M613.049,845.623a5.948,5.948,0,0,0-4.18,1.538V846h-3.6V862.5h3.6v-9.709a3.588,3.588,0,0,1,3.624-3.712,3.209,3.209,0,0,1,3.273,3.361V862.5h3.6V852.291C619.367,848.365,616.769,845.623,613.049,845.623Z" transform="translate(-462.084 -840.816)" fill="#fff"/>
    <path id="Path_59" data-name="Path 59" d="M669.385,856.213a3.972,3.972,0,0,1-4.073,3.27c-2.857,0-4.852-2.151-4.852-5.232,0-3.032,2.016-5.232,4.794-5.232a3.972,3.972,0,0,1,4.073,3.27l.12.667,3.576-.825-.153-.633a7.7,7.7,0,0,0-7.674-5.874,8.629,8.629,0,0,0,.029,17.255,7.715,7.715,0,0,0,7.7-5.874l.152-.634-3.575-.825Z" transform="translate(-497.105 -840.819)" fill="#fff"/>
    <path id="Path_60" data-name="Path 60" d="M720.007,845.623c-4.568,0-8.013,3.734-8.013,8.686,0,5.125,3.279,8.569,8.16,8.569a7.46,7.46,0,0,0,7.489-5.314l.232-.836-3.729-.023a3.878,3.878,0,0,1-3.963,2.837,4.111,4.111,0,0,1-4.5-4h12.188v-1.493C727.874,848.929,724.786,845.623,720.007,845.623Zm0,3.366a3.921,3.921,0,0,1,4.14,3.388H715.8A4.223,4.223,0,0,1,720.007,848.989Z" transform="translate(-534.824 -840.819)" fill="#fff"/>
    <path id="Path_61" data-name="Path 61" d="M777.19,845.623a5.078,5.078,0,0,0-3.682,1.617V846h-3.57V862.5h3.6v-8.774c0-1.681.425-4.5,3.273-4.5h2.019v-3.6Z" transform="translate(-574.084 -840.816)" fill="#fff"/>
    <path id="Path_62" data-name="Path 62" d="M810.739,837.5,809,835.758l4.507-5.279,2.51,2.51Z" transform="translate(-600.551 -830.479)" fill="#fff"/>
    <path id="Path_63" data-name="Path 63" d="M816.7,860.942V857.72l9.067-.714v4.651Z" transform="translate(-605.771 -848.517)" fill="#fff"/>
    <path id="Path_64" data-name="Path 64" d="M809,877.932l1.739-1.739,5.279,4.507-2.51,2.51Z" transform="translate(-600.551 -861.577)" fill="#fff"/>
  </g>
<div xmlns="" id="divScriptsUsed" style="display: none"/><script xmlns="" id="globalVarsDetection" src="chrome-extension://cmkdbmfndkfgebldhnkbfhlneefdaaip/js/wrs_env.js"/></svg>