<svg xmlns:xlink="http://www.w3.org/1999/xlink" xmlns="http://www.w3.org/2000/svg" width="748.5" height="451.438" viewBox="0 0 748.5 451.438">
  <g id="Group_14" data-name="Group 14" transform="translate(-119.839 -509.906)" opacity="0.5">
    <path id="Path_92" data-name="Path 92" d="M340.226,522.452,149.58,622.895V776.651L340.226,877.093a21.35,21.35,0,0,0,29.409-19.777V542.23A21.351,21.351,0,0,0,340.226,522.452Z" transform="translate(167.486 60.073)" fill="none" stroke="#fff" stroke-width="0.5"/>
    <path id="Path_93" data-name="Path 93" d="M188.1,538.5V660.534a64.347,64.347,0,0,0,0-122.029Z" transform="translate(386.268 160.327)" fill="none" stroke="#fff" stroke-width="0.5"/>
    <path id="Path_94" data-name="Path 94" d="M265.75,744.4c-8.85-15.8-11.1-32.909-6.84-49.413h20.906V535.716H185.652a65.565,65.565,0,0,0-65.563,65.563v28.146a65.532,65.532,0,0,0,57.388,65v1.35a67.718,67.718,0,0,0,9.1,33.442l36.669,65c2.224,3.947,7.674,6.539,13.746,6.539h38.666c10.406,0,17.553-7.307,13.759-14.073Z" transform="translate(0 144.494)" fill="none" stroke="#fff" stroke-width="0.5"/>
    <path id="Path_95" data-name="Path 95" d="M341.62,562.271l-52-52-93.37,109.345,36.021,36.021Z" transform="translate(432.558 0)" fill="none" stroke="#fff" stroke-width="0.5"/>
    <path id="Path_96" data-name="Path 96" d="M203.958,551.6v66.75l187.822,14.8V536.8Z" transform="translate(476.309 150.648)" fill="none" stroke="#fff" stroke-width="0.5"/>
    <path id="Path_97" data-name="Path 97" d="M196.254,592.009l93.37,109.345,52-52L232.275,555.988Z" transform="translate(432.558 259.622)" fill="none" stroke="#fff" stroke-width="0.5"/>
  </g>
<div xmlns="" id="divScriptsUsed" style="display: none"/><script xmlns="" id="globalVarsDetection" src="chrome-extension://cmkdbmfndkfgebldhnkbfhlneefdaaip/js/wrs_env.js"/></svg>