<svg xmlns:xlink="http://www.w3.org/1999/xlink" xmlns="http://www.w3.org/2000/svg" width="1386.477" height="1386.477" viewBox="0 0 1386.477 1386.477">
  <g id="Group_13" data-name="Group 13" transform="translate(254.607 -526.144) rotate(45)" opacity="0.5">
    <path id="Path_84" data-name="Path 84" d="M373.942,391.592a199.84,199.84,0,0,1,178.72,0l20.892,10.447a199.766,199.766,0,0,0,178.721,0l20.893-10.447a199.84,199.84,0,0,1,178.72,0l20.892,10.447a199.765,199.765,0,0,0,178.72,0l20.893-10.447a199.84,199.84,0,0,1,178.72,0l20.892,10.447a199.765,199.765,0,0,0,178.72,0l20.892-10.447a199.84,199.84,0,0,1,178.72,0l20.893,10.447a199.766,199.766,0,0,0,178.72,0l20.893-10.447" transform="translate(0 0)" fill="none" stroke="#fff" stroke-miterlimit="10" stroke-width="0.5"/>
    <path id="Path_85" data-name="Path 85" d="M373.942,395.592a199.837,199.837,0,0,1,178.72,0l20.892,10.446a199.767,199.767,0,0,0,178.721,0l20.893-10.446a199.837,199.837,0,0,1,178.72,0l20.892,10.446a199.766,199.766,0,0,0,178.72,0l20.893-10.446a199.836,199.836,0,0,1,178.72,0l20.892,10.446a199.766,199.766,0,0,0,178.72,0l20.892-10.446a199.837,199.837,0,0,1,178.72,0l20.893,10.446a199.766,199.766,0,0,0,178.72,0l20.893-10.446" transform="translate(0 40.359)" fill="none" stroke="#fff" stroke-miterlimit="10" stroke-width="0.5"/>
    <path id="Path_86" data-name="Path 86" d="M373.942,399.592a199.837,199.837,0,0,1,178.72,0l20.892,10.446a199.767,199.767,0,0,0,178.721,0l20.893-10.446a199.837,199.837,0,0,1,178.72,0l20.892,10.446a199.766,199.766,0,0,0,178.72,0l20.893-10.446a199.837,199.837,0,0,1,178.72,0l20.892,10.446a199.766,199.766,0,0,0,178.72,0l20.892-10.446a199.837,199.837,0,0,1,178.72,0l20.893,10.446a199.766,199.766,0,0,0,178.72,0l20.893-10.446" transform="translate(0 80.717)" fill="none" stroke="#fff" stroke-miterlimit="10" stroke-width="0.5"/>
    <path id="Path_87" data-name="Path 87" d="M373.942,403.592a199.837,199.837,0,0,1,178.72,0l20.892,10.446a199.769,199.769,0,0,0,178.721,0l20.893-10.446a199.837,199.837,0,0,1,178.72,0l20.892,10.446a199.768,199.768,0,0,0,178.72,0l20.893-10.446a199.836,199.836,0,0,1,178.72,0l20.892,10.446a199.768,199.768,0,0,0,178.72,0l20.892-10.446a199.837,199.837,0,0,1,178.72,0l20.893,10.446a199.769,199.769,0,0,0,178.72,0l20.893-10.446" transform="translate(0 121.075)" fill="none" stroke="#fff" stroke-miterlimit="10" stroke-width="0.5"/>
    <path id="Path_88" data-name="Path 88" d="M373.942,407.592a199.837,199.837,0,0,1,178.72,0l20.892,10.447a199.766,199.766,0,0,0,178.721,0l20.893-10.447a199.837,199.837,0,0,1,178.72,0l20.892,10.447a199.765,199.765,0,0,0,178.72,0l20.893-10.447a199.837,199.837,0,0,1,178.72,0l20.892,10.447a199.765,199.765,0,0,0,178.72,0l20.892-10.447a199.837,199.837,0,0,1,178.72,0l20.893,10.447a199.766,199.766,0,0,0,178.72,0l20.893-10.447" transform="translate(0 161.434)" fill="none" stroke="#fff" stroke-miterlimit="10" stroke-width="0.5"/>
    <path id="Path_89" data-name="Path 89" d="M373.942,411.592a199.837,199.837,0,0,1,178.72,0l20.892,10.446a199.766,199.766,0,0,0,178.721,0l20.893-10.446a199.837,199.837,0,0,1,178.72,0l20.892,10.446a199.765,199.765,0,0,0,178.72,0l20.893-10.446a199.836,199.836,0,0,1,178.72,0l20.892,10.446a199.765,199.765,0,0,0,178.72,0l20.892-10.446a199.837,199.837,0,0,1,178.72,0l20.893,10.446a199.766,199.766,0,0,0,178.72,0l20.893-10.446" transform="translate(0 201.792)" fill="none" stroke="#fff" stroke-miterlimit="10" stroke-width="0.5"/>
    <path id="Path_90" data-name="Path 90" d="M373.942,415.592a199.837,199.837,0,0,1,178.72,0l20.892,10.446a199.766,199.766,0,0,0,178.721,0l20.893-10.446a199.837,199.837,0,0,1,178.72,0l20.892,10.446a199.766,199.766,0,0,0,178.72,0l20.893-10.446a199.837,199.837,0,0,1,178.72,0l20.892,10.446a199.766,199.766,0,0,0,178.72,0l20.892-10.446a199.837,199.837,0,0,1,178.72,0l20.893,10.446a199.766,199.766,0,0,0,178.72,0l20.893-10.446" transform="translate(0 242.151)" fill="none" stroke="#fff" stroke-miterlimit="10" stroke-width="0.5"/>
    <path id="Path_91" data-name="Path 91" d="M373.942,419.592a199.837,199.837,0,0,1,178.72,0l20.892,10.446a199.767,199.767,0,0,0,178.721,0l20.893-10.446a199.837,199.837,0,0,1,178.72,0l20.892,10.446a199.767,199.767,0,0,0,178.72,0l20.893-10.446a199.836,199.836,0,0,1,178.72,0l20.892,10.446a199.767,199.767,0,0,0,178.72,0l20.892-10.446a199.837,199.837,0,0,1,178.72,0l20.893,10.446a199.767,199.767,0,0,0,178.72,0l20.893-10.446" transform="translate(0 282.509)" fill="none" stroke="#fff" stroke-miterlimit="10" stroke-width="0.5"/>
  </g>
<div xmlns="" id="divScriptsUsed" style="display: none"/><script xmlns="" id="globalVarsDetection" src="chrome-extension://cmkdbmfndkfgebldhnkbfhlneefdaaip/js/wrs_env.js"/></svg>