<svg xmlns="http://www.w3.org/2000/svg" xmlns:xlink="http://www.w3.org/1999/xlink" width="68" height="68" viewBox="0 0 68 68">
  <defs>
    <clipPath id="clip-path">
      <circle id="e0eaa4b3ed8f96488ddcef5e46c58952" cx="34" cy="34" r="34" transform="translate(277 1120)" fill="#5122ef"/>
    </clipPath>
  </defs>
  <g id="Mask_Group_1" data-name="Mask Group 1" transform="translate(-277 -1120)" clip-path="url(#clip-path)">
    <circle id="e0eaa4b3ed8f96488ddcef5e46c58952-2" data-name="e0eaa4b3ed8f96488ddcef5e46c58952" cx="34" cy="34" r="34" transform="translate(277 1120)" fill="#5122ef"/>
    <g id="skater" transform="translate(286.999 1128)">
      <path id="Path_98" data-name="Path 98" d="M1.335,179.764l-.05.517a10.914,10.914,0,0,0,.016,1.994,3.767,3.767,0,0,1-.64,2.45l0,.005a3.761,3.761,0,0,0,.01,4.258l.033.048a3.578,3.578,0,0,1,.463,3.123A3.766,3.766,0,0,0,2.478,196.2a3.765,3.765,0,0,1,1.466,2.867v.014a3.769,3.769,0,0,0,2.5,3.423l.083.03a3.584,3.584,0,0,1,2.184,2.211,3.764,3.764,0,0,0,3.445,2.54h.005a3.764,3.764,0,0,1,2.867,1.466,3.765,3.765,0,0,0,4.041,1.316l.014,0a3.789,3.789,0,0,1,3.172.51,3.772,3.772,0,0,0,4.243,0,3.788,3.788,0,0,1,3.171-.51l.014,0a3.766,3.766,0,0,0,4.042-1.316,3.763,3.763,0,0,1,2.867-1.466H36.6a3.764,3.764,0,0,0,3.445-2.54,3.584,3.584,0,0,1,2.184-2.211l.083-.03a3.769,3.769,0,0,0,2.5-3.423v-.014a3.764,3.764,0,0,1,1.466-2.867,3.766,3.766,0,0,0,1.316-4.042,3.579,3.579,0,0,1,.463-3.123l.033-.048a3.761,3.761,0,0,0,.011-4.258l0-.005a3.768,3.768,0,0,1-.64-2.45,10.873,10.873,0,0,0,.016-1.994l-.049-.517-23.043-3.233Zm0,0" transform="translate(0 -155.844)" fill="#918bd7"/>
      <path id="Path_99" data-name="Path 99" d="M116.517,430.227l1.842,4.791-1.842,4.791h-4.794C111.722,433.9,116.517,430.227,116.517,430.227Zm0,0" transform="translate(-98.629 -379.809)" fill="#ffdcce"/>
      <path id="Path_100" data-name="Path 100" d="M116.517,430.227s-4.794,3.677-4.794,9.583h2.414a12.319,12.319,0,0,1,3.049-7.842Zm0,0" transform="translate(-98.629 -379.809)" fill="#ffcabd"/>
      <path id="Path_101" data-name="Path 101" d="M256.62,439.809h-4.795l-1.537-4.911,1.537-4.672S256.62,433.9,256.62,439.809Zm0,0" transform="translate(-220.957 -379.809)" fill="#ffdcce"/>
      <path id="Path_102" data-name="Path 102" d="M152.633,430.227h12.981v9.583H152.633Zm0,0" transform="translate(-134.745 -379.809)" fill="#4f4c5f"/>
      <path id="Path_103" data-name="Path 103" d="M184.368,411.929a3.62,3.62,0,1,1-3.62-3.62A3.62,3.62,0,0,1,184.368,411.929Zm0,0" transform="translate(-156.37 -360.46)" fill="#ffdcce"/>
      <path id="Path_104" data-name="Path 104" d="M74.343,110.468a20.46,20.46,0,1,1-20.46-20.46A20.46,20.46,0,0,1,74.343,110.468Zm0,0" transform="translate(-29.504 -79.46)" fill="#ffdcce"/>
      <path id="Path_105" data-name="Path 105" d="M37.044,110.468a20.462,20.462,0,0,1,18.65-20.38c-.6-.052-1.2-.081-1.811-.081a20.46,20.46,0,1,0,0,40.921c.61,0,1.214-.028,1.811-.081A20.462,20.462,0,0,1,37.044,110.468Zm0,0" transform="translate(-29.504 -79.46)" fill="#ffcabd"/>
      <path id="Path_106" data-name="Path 106" d="M109.226,252.234a.905.905,0,0,1-.905-.905v-2.1a.905.905,0,0,1,1.811,0v2.1A.905.905,0,0,1,109.226,252.234Zm0,0" transform="translate(-95.625 -219.227)" fill="#423e4f"/>
      <path id="Path_107" data-name="Path 107" d="M99.9,294.307H97.046a.905.905,0,1,1,0-1.81H99.9a.905.905,0,1,1,0,1.81Zm0,0" transform="translate(-84.873 -258.219)" fill="#ff9db0"/>
      <path id="Path_108" data-name="Path 108" d="M293.167,252.234a.905.905,0,0,1-.905-.905v-2.1a.905.905,0,0,1,1.811,0v2.1A.905.905,0,0,1,293.167,252.234Zm0,0" transform="translate(-258.011 -219.227)" fill="#423e4f"/>
      <path id="Path_109" data-name="Path 109" d="M283.846,294.307h-2.854a.905.905,0,1,1,0-1.81h2.854a.905.905,0,1,1,0,1.81Zm0,0" transform="translate(-247.262 -258.219)" fill="#ff9db0"/>
      <path id="Path_110" data-name="Path 110" d="M186.674,286.868a3.455,3.455,0,0,1-2.61-1.163.905.905,0,0,1,1.364-1.192,1.7,1.7,0,0,0,2.492,0,.905.905,0,1,1,1.363,1.192A3.455,3.455,0,0,1,186.674,286.868Zm0,0" transform="translate(-162.296 -250.899)" fill="#423e4f"/>
      <path id="Path_111" data-name="Path 111" d="M32.507,17.455c-1.825-6.465.125-4.142,2.222-10.09S44.7,0,52.435,0s15.61,1.416,17.706,7.365,4.046,3.626,2.222,10.09L52.435,20.687Zm0,0" transform="translate(-28.056)" fill="#00dcc3"/>
      <path id="Path_112" data-name="Path 112" d="M36.128,17.455c-1.825-6.465.125-4.142,2.222-10.09C40.282,1.88,47.127.249,54.245.027,53.643.009,53.038,0,52.435,0,44.7,0,36.824,1.416,34.728,7.365s-4.046,3.626-2.222,10.09l19.928,3.232,1.81-.293Zm0,0" transform="translate(-28.056 0)" fill="#00ad8d"/>
      <path id="Path_113" data-name="Path 113" d="M175.234,65.867h-6.51A1.529,1.529,0,0,0,167.2,67.4V70a1.529,1.529,0,0,0,1.529,1.529h6.51A1.529,1.529,0,0,0,176.763,70V67.4A1.529,1.529,0,0,0,175.234,65.867Zm0,0" transform="translate(-147.601 -58.148)" fill="#918bd7"/>
      <path id="Path_114" data-name="Path 114" d="M57.466,155.414H11.379a24.06,24.06,0,0,1,3.116-6.465H54.351A24.06,24.06,0,0,1,57.466,155.414Zm0,0" transform="translate(-10.044 -131.494)" fill="#4f4c5f"/>
      <path id="Path_115" data-name="Path 115" d="M14.494,148.949a24.06,24.06,0,0,0-3.116,6.465H15a24.06,24.06,0,0,1,3.116-6.465Zm0,0" transform="translate(-10.044 -131.494)" fill="#423e4f"/>
    </g>
  </g>
<div xmlns="" id="divScriptsUsed" style="display: none"/><script xmlns="" id="globalVarsDetection" src="chrome-extension://cmkdbmfndkfgebldhnkbfhlneefdaaip/js/wrs_env.js"/></svg>